Coordinates
version=1
nRows=16
nColumns=22
inDegrees=yes

Units are S.I. units (second, meters, Newtons, ...)
If the header above contains a line with 'inDegrees', this indicates whether rotational values are in degrees (yes) or radians (no).

endheader
time	pelvis_tilt	pelvis_list	pelvis_rotation	pelvis_tx	pelvis_ty	pelvis_tz	hip_flexion_r	hip_adduction_r	hip_rotation_r	knee_angle_r	ankle_angle_r	subtalar_angle_r	hip_flexion_l	hip_adduction_l	hip_rotation_l	knee_angle_l	ankle_angle_l	subtalar_angle_l	lumbar_extension	lumbar_bending	lumbar_rotation
      6.50000000	     -1.27539529	      3.34821093	   -194.11863671	      0.28504037	      0.92941139	      0.75566507	      7.88413591	     -0.00872330	      3.14065442	    -23.37315549	      9.15535952	      1.74922270	      3.74019919	    -10.71736092	    -24.86490000	    -19.94747248	      7.93926719	      6.04744514	     -6.67797580	      0.82434582	      1.57637905
      6.51000000	     -1.29253784	      3.24591004	   -194.25854031	      0.28287518	      0.92918334	      0.75593912	      7.24178125	      0.05658900	      3.34736203	    -21.11259588	      8.34418783	      1.66723937	      3.54118601	    -10.55830154	    -25.04639208	    -19.92407004	      8.11861192	      6.15533622	     -6.45940320	      0.68364255	      1.82407598
      6.52000000	     -1.34117592	      3.15339255	   -194.36087779	      0.28074234	      0.92904257	      0.75612914	      6.62829069	      0.09954267	      3.63286752	    -19.19770132	      7.41479623	      1.46213532	      3.29939382	    -10.39628049	    -25.21318605	    -19.85887189	      8.26766004	      6.25558519	     -6.27246526	      0.55026345	      2.08256280
      6.53000000	     -1.43267909	      3.07270680	   -194.42610265	      0.27864895	      0.92902499	      0.75627680	      6.06079206	      0.10799438	      3.94294271	    -17.71256011	      6.49415804	      1.15370891	      2.99481912	    -10.22255592	    -25.35402762	    -19.73366868	      8.38115621	      6.35288958	     -6.13535067	      0.42757524	      2.35034132
      6.54000000	     -1.56829916	      3.00224646	   -194.45163318	      0.27658885	      0.92914283	      0.75641195	      5.54859551	      0.07336665	      4.22038925	    -16.67884363	      5.70383948	      0.82514366	      2.61993814	    -10.03152587	    -25.46919507	    -19.53425607	      8.45200431	      6.44523600	     -6.04750195	      0.31373360	      2.61480625
      6.55000000	     -1.75431317	      2.94225712	   -194.43559634	      0.27456011	      0.92941300	      0.75657265	      5.06848190	     -0.00831479	      4.43066075	    -16.03595487	      5.12082273	      0.57744229	      2.16321798	     -9.81600048	    -25.54899606	    -19.24812034	      8.47997761	      6.53670928	     -6.01860118	      0.20860303	      2.86777891
      6.56000000	     -1.97891266	      2.89756183	   -194.37580829	      0.27255107	      0.92982931	      0.75678351	      4.58777553	     -0.12806621	      4.56699201	    -15.65120929	      4.72654732	      0.49152568	      1.63491590	     -9.58497907	    -25.59585645	    -18.87338016	      8.44163077	      6.61935162	     -6.03577037	      0.12350857	      3.10290334
      6.57000000	     -2.25833474	      2.87773856	   -194.25338478	      0.27052615	      0.93039994	      0.75705404	      4.02543834	     -0.27615753	      4.62432155	    -15.36048611	      4.51090049	      0.58388014	      1.01686146	     -9.34700736	    -25.59072163	    -18.41333510	      8.40566521	      6.71803956	     -6.11416540	      0.05871451	      3.27805312
      6.58000000	     -2.56127871	      2.88268526	   -194.05524424	      0.26848638	      0.93108679	      0.75744572	      3.36443978	     -0.44347666	      4.59381491	    -15.01719113	      4.36433263	      0.83991710	      0.35710562	     -9.11593548	    -25.52845758	    -17.88942580	      8.31886246	      6.81777773	     -6.22159661	      0.03254979	      3.40140947
      6.59000000	     -2.88463847	      2.92846907	   -193.76710420	      0.26640443	      0.93186404	      0.75793339	      2.57037247	     -0.60036226	      4.46800406	    -14.53154691	      4.25629398	      1.24178076	     -0.34571807	     -8.91646765	    -25.39343680	    -17.30144351	      8.22872462	      6.93076362	     -6.35223250	      0.05690634	      3.44115594
      6.60000000	     -3.20919219	      3.00504612	   -193.40574867	      0.26428375	      0.93267048	      0.75850670	      1.66247394	     -0.74016334	      4.29353329	    -13.87234063	      4.18027121	      1.77792991	     -1.06399474	     -8.75392171	    -25.23948948	    -16.67391003	      8.14860024	      7.06771440	     -6.47917342	      0.12756588	      3.39377151
      6.61000000	     -3.51445267	      3.08863996	   -192.94343785	      0.26211786	      0.93345554	      0.75917045	      0.67505028	     -0.87029827	      4.00462467	    -13.04491672	      4.06779411	      2.35452199	     -1.75442612	     -8.61133319	    -24.98462643	    -16.02078254	      8.05007121	      7.20711747	     -6.56973006	      0.21183036	      3.26875706
      6.62000000	     -3.79758547	      3.16878547	   -192.40009213	      0.25993443	      0.93417467	      0.75992934	     -0.36425506	     -0.98799891	      3.67055688	    -12.08234267	      3.93886439	      2.95342376	     -2.41244603	     -8.48135835	    -24.66357269	    -15.34793626	      7.95781661	      7.36030432	     -6.62420307	      0.30586520	      3.07801469
      6.63000000	     -4.03524824	      3.23508243	   -191.78132050	      0.25772182	      0.93477393	      0.76073742	     -1.39327947	     -1.08426567	      3.26879095	    -11.05386393	      3.78261742	      3.49856531	     -3.01203249	     -8.36207310	    -24.27080894	    -14.65821780	      7.87043453	      7.51733615	     -6.60929937	      0.39204782	      2.81266509
      6.64000000	     -4.23398314	      3.27613794	   -191.12182363	      0.25550147	      0.93524392	      0.76155849	     -2.38080507	     -1.16668815	      2.83947874	    -10.02066180	      3.60468624	      3.97719175	     -3.57131271	     -8.23593195	    -23.83541397	    -13.93931239	      7.78257319	      7.68717646	     -6.53251380	      0.45331847	      2.50116104
      6.65000000	     -4.40034555	      3.27596418	   -190.41995143	      0.25330262	      0.93557167	      0.76240260	     -3.30974070	     -1.25114260	      2.35794897	     -9.02280369	      3.46014070	      4.33897775	     -4.06897300	     -8.09393079	    -23.35892372	    -13.24150889	      7.70898564	      7.86438708	     -6.40634519	      0.46600288	      2.15598218
